<svg width="64px" height="64px" viewBox="0 0 1293.00 1293.00" class="icon" version="1.1" xmlns="http://www.w3.org/2000/svg" fill="#050505" stroke="#050505" stroke-width="0.01293"><g id="SVGRepo_bgCarrier" stroke-width="0"></g><g id="SVGRepo_tracerCarrier" stroke-linecap="round" stroke-linejoin="round" stroke="#CCCCCC" stroke-width="38.79"></g><g id="SVGRepo_iconCarrier"><path d="M287.528345 260.581254l42.846305-223.6631A12.126313 12.126313 0 0 1 342.231489 26.947631h609.010366a12.126313 12.126313 0 0 1 11.856839 9.970523l42.846304 223.6631z" fill="#1fcdaa "></path><path d="M939.115542 53.894992l34.223149 179.7389H320.134653L354.357801 53.894992h584.757741m12.395787-53.894723H342.231489a39.073674 39.073674 0 0 0-38.265253 31.797887l-49.044198 255.730459h783.629268l-48.774724-255.730459A39.073674 39.073674 0 0 0 951.241855 0.000269z" fill="#0d0d0d"></path><path d="M26.947361 188.631799l1239.578621 0 0 808.42084-1239.578621 0 0-808.42084Z" fill="#019eff "></path><path d="M1212.63126 215.57916a26.947361 26.947361 0 0 1 26.947361 26.947361v700.631395a26.947361 26.947361 0 0 1-26.947361 26.947361H80.842084a26.947361 26.947361 0 0 1-26.947361-26.947361V242.526521a26.947361 26.947361 0 0 1 26.947361-26.947361h1131.789176m0-53.894723H80.842084a80.842084 80.842084 0 0 0-80.842084 80.842084v700.631395a80.842084 80.842084 0 0 0 80.842084 80.842084h1131.789176a80.842084 80.842084 0 0 0 80.842084-80.842084V242.526521a80.842084 80.842084 0 0 0-80.842084-80.842084z" fill="#0d0d0d"></path><path d="M646.736672 883.334774A290.492555 290.492555 0 1 1 937.229227 592.842219 291.031502 291.031502 0 0 1 646.736672 883.334774z" fill="#FFFFFF"></path><path d="M646.736672 329.297025A263.545194 263.545194 0 1 1 383.191478 592.842219 263.814667 263.814667 0 0 1 646.736672 329.297025m0-53.894723A317.439916 317.439916 0 1 0 964.176588 592.842219 317.439916 317.439916 0 0 0 646.736672 275.402302z" fill="#0d0d0d"></path><path d="M646.736672 592.842219m-120.185232 0a120.185232 120.185232 0 1 0 240.370463 0 120.185232 120.185232 0 1 0-240.370463 0Z" fill="#019eff "></path><path d="M646.736672 499.604349A93.23787 93.23787 0 1 1 553.498802 592.842219 93.23787 93.23787 0 0 1 646.736672 499.604349m0-53.894723A147.132593 147.132593 0 1 0 793.869265 592.842219 147.132593 147.132593 0 0 0 646.736672 445.709626z" fill="#0d0d0d"></path><path d="M1007.292367 280.791775l169.498902 0 0 88.926292-169.498902 0 0-88.926292Z" fill="#1fcdaa "></path><path d="M1149.843908 307.739136v35.03157h-115.60418v-35.03157h115.60418m4.311578-53.894723h-123.957862a49.583145 49.583145 0 0 0-49.583145 49.583145v43.385252a49.583145 49.583145 0 0 0 49.583145 49.583145h123.957862a49.583145 49.583145 0 0 0 49.583145-49.583145v-43.385252a49.583145 49.583145 0 0 0-49.583145-49.583145z" fill="#0d0d0d"></path></g></svg>
